<?xml version="1.0" standalone="no"?>
<!DOCTYPE svg PUBLIC "-//W3C//DTD SVG 20010904//EN"
 "http://www.w3.org/TR/2001/REC-SVG-20010904/DTD/svg10.dtd">
<svg version="1.0" xmlns="http://www.w3.org/2000/svg"
 width="756.000000pt" height="330.000000pt" viewBox="0 0 756.000000 330.000000"
 preserveAspectRatio="xMidYMid meet">

<g transform="translate(0.000000,330.000000) scale(0.100000,-0.100000)"
fill="#000000" stroke="none">
<path d="M2198 3008 c-14 -11 -137 -150 -203 -227 -18 -23 -46 -54 -176 -201
-27 -30 -78 -89 -114 -130 -36 -41 -85 -97 -110 -125 -24 -27 -70 -79 -102
-115 -60 -67 -248 -281 -293 -334 -14 -16 -49 -57 -79 -90 -30 -34 -76 -86
-102 -116 -27 -30 -74 -85 -106 -121 -32 -36 -83 -94 -113 -128 -30 -35 -76
-87 -102 -115 -26 -28 -48 -54 -48 -58 0 -3 11 -19 24 -35 13 -15 45 -64 72
-108 26 -44 58 -93 71 -108 12 -15 31 -47 42 -70 24 -51 81 -117 87 -101 11
25 88 150 104 169 10 11 25 38 35 60 9 22 24 49 34 60 10 11 35 49 56 85 21
36 60 98 87 138 26 41 48 78 48 83 0 5 23 41 51 80 27 39 55 83 62 97 6 15 25
47 42 72 18 25 51 79 75 120 23 41 51 84 60 95 10 11 29 40 41 65 13 25 45 78
72 118 26 40 51 81 54 90 3 9 16 31 29 48 12 17 50 77 84 135 35 57 71 113 80
124 10 11 26 37 37 57 20 40 92 160 164 271 60 94 129 211 129 220 0 12 -75 8
-92 -5z"/>
<path d="M4785 2510 c-84 -26 -120 -133 -73 -215 29 -50 59 -65 128 -65 70 0
99 15 127 65 40 71 22 159 -40 199 -30 20 -103 28 -142 16z"/>
<path d="M4056 2233 c-3 -38 -8 -105 -12 -150 l-6 -83 -104 0 -105 0 3 -97 3
-98 102 -3 101 -3 4 -382 3 -382 27 -45 c40 -69 89 -109 162 -136 59 -21 84
-24 211 -24 l145 0 0 94 0 94 -112 4 c-82 3 -122 9 -145 21 -62 33 -63 40 -63
417 l0 340 165 0 165 0 0 100 0 100 -165 0 -165 0 0 150 0 150 -104 0 -104 0
-6 -67z"/>
<path d="M2120 2013 c-103 -18 -184 -60 -270 -140 -130 -120 -202 -359 -171
-563 32 -204 144 -371 299 -447 102 -49 162 -63 272 -63 115 1 160 10 257 55
111 51 206 153 258 278 l15 37 -118 0 c-115 0 -119 -1 -129 -23 -6 -13 -30
-44 -53 -70 -62 -67 -127 -90 -246 -85 -83 3 -96 7 -149 38 -85 51 -151 146
-174 250 -20 89 -68 80 438 80 l450 0 6 43 c12 77 -13 243 -46 311 -42 87 -98
161 -144 191 -22 15 -49 35 -60 46 -32 29 -93 50 -185 65 -103 17 -140 16
-250 -3z m276 -208 c67 -30 94 -52 136 -113 35 -51 51 -148 27 -163 -15 -9
-642 -13 -651 -3 -13 12 23 111 59 163 45 66 54 74 113 102 116 56 212 60 316
14z"/>
<path d="M3220 2015 c-41 -7 -91 -19 -110 -27 -48 -20 -140 -101 -167 -146
-32 -52 -46 -133 -38 -209 6 -56 12 -71 49 -116 70 -87 215 -152 408 -183 109
-18 192 -55 219 -98 26 -41 22 -134 -8 -174 -40 -54 -88 -72 -196 -72 -109 0
-144 10 -201 60 -38 33 -76 96 -76 125 0 13 -19 15 -121 15 l-121 0 6 -34 c24
-127 104 -234 217 -291 95 -48 170 -65 291 -65 196 0 308 50 421 187 30 35 48
165 35 250 -11 79 -31 113 -95 168 -43 37 -221 100 -363 129 -158 33 -240 88
-240 162 0 61 23 90 100 125 37 17 60 20 127 17 74 -4 87 -8 136 -41 43 -28
59 -46 72 -81 l18 -46 110 0 110 0 -7 41 c-9 58 -58 148 -106 196 -64 64 -114
89 -219 107 -109 19 -148 19 -251 1z"/>
<path d="M5492 2015 c-90 -17 -145 -44 -209 -104 -63 -59 -85 -91 -109 -166
-44 -137 -12 -315 72 -405 l43 -46 -104 -102 c-119 -116 -130 -143 -76 -181
16 -12 32 -21 35 -21 11 0 76 -45 76 -52 0 -4 -21 -28 -46 -54 -25 -26 -57
-70 -72 -98 -22 -43 -26 -64 -26 -136 0 -105 23 -162 91 -226 73 -68 119 -91
227 -113 193 -40 443 -21 551 44 46 27 145 119 145 135 0 6 10 32 22 58 34 70
32 204 -3 287 -51 121 -154 168 -439 200 -74 9 -158 19 -186 24 -56 11 -134
39 -134 50 0 4 22 28 49 55 l49 48 51 -11 c124 -26 312 1 394 57 60 42 119
110 153 180 27 53 29 66 29 172 0 105 -2 119 -27 166 l-27 51 52 7 c29 3 75 6
103 6 61 0 64 4 64 96 l0 64 -212 0 c-141 0 -240 5 -293 15 -96 17 -146 17
-243 0z m219 -187 c56 -19 115 -65 135 -105 26 -51 26 -173 1 -228 -52 -113
-242 -158 -372 -87 -110 60 -146 199 -82 321 20 37 36 52 88 78 53 27 75 33
130 33 36 0 81 -5 100 -12z m-81 -962 c161 -19 208 -35 251 -89 30 -37 34 -49
34 -103 0 -94 -44 -145 -160 -190 -59 -22 -204 -25 -275 -5 -60 17 -154 76
-171 107 -7 14 -13 55 -13 92 0 77 23 121 90 172 46 35 65 36 244 16z"/>
<path d="M6760 2025 c-8 -2 -49 -9 -90 -15 -145 -23 -294 -139 -367 -285 -60
-121 -77 -202 -70 -348 7 -179 58 -302 170 -415 105 -106 245 -162 406 -162
122 1 165 11 276 65 140 67 234 181 281 337 45 153 42 289 -11 455 -50 159
-212 313 -366 347 -69 16 -200 28 -229 21z m190 -225 c82 -33 154 -114 183
-205 31 -100 31 -261 -1 -363 -19 -61 -32 -82 -79 -129 -79 -78 -147 -108
-243 -108 -132 1 -230 67 -296 200 -36 72 -38 83 -42 191 -5 131 5 180 54 269
37 69 71 103 133 134 92 46 195 50 291 11z"/>
<path d="M170 2012 c0 -5 25 -44 55 -87 30 -44 55 -83 55 -88 0 -4 24 -42 53
-85 30 -42 68 -102 86 -132 44 -75 94 -147 104 -149 5 -1 78 61 162 139 l154
142 -19 26 c-11 15 -48 74 -83 132 l-63 105 -252 3 c-139 1 -252 -1 -252 -6z"/>
<path d="M4728 1438 c-2 -310 -2 -573 0 -585 3 -22 7 -23 113 -23 l109 0 0
585 0 585 -110 0 -110 0 -2 -562z"/>
<path d="M1664 502 c-6 -4 -17 -18 -24 -31 -18 -34 2 -65 55 -86 42 -15 61
-37 49 -56 -9 -16 -84 -11 -90 6 -8 19 -24 20 -24 2 0 -23 35 -47 69 -47 48 0
71 16 71 50 0 47 -9 58 -61 75 -42 14 -50 21 -47 38 4 32 51 35 72 5 11 -15
19 -19 26 -12 32 32 -55 84 -96 56z"/>
<path d="M1852 498 c-30 -15 -39 -54 -18 -77 9 -10 34 -26 56 -36 30 -14 40
-24 40 -42 0 -20 -5 -23 -35 -23 -21 0 -37 6 -43 16 -5 9 -18 14 -28 12 -17
-3 -17 -6 8 -31 19 -19 37 -27 61 -27 38 0 77 30 77 60 0 20 -39 55 -73 66
-37 11 -48 24 -36 45 13 25 45 24 59 -1 12 -22 40 -27 40 -7 0 18 -12 32 -37
46 -26 13 -41 13 -71 -1z"/>
<path d="M4022 490 c-24 -23 -29 -53 -9 -70 6 -6 30 -21 52 -34 25 -13 41 -30
43 -44 3 -19 -1 -22 -33 -22 -22 0 -38 6 -41 15 -7 16 -44 21 -44 6 0 -5 12
-19 26 -30 37 -29 85 -27 114 4 20 22 22 28 12 50 -7 16 -30 34 -57 46 -52 23
-61 34 -45 54 18 21 47 18 60 -5 12 -22 40 -27 40 -7 0 18 -12 32 -37 46 -32
16 -56 14 -81 -9z"/>
<path d="M940 395 l0 -105 51 0 c70 0 89 12 89 58 0 21 -5 43 -11 49 -8 8 -8
13 0 17 15 9 14 59 -1 74 -7 7 -38 12 -70 12 l-58 0 0 -105z m94 79 c9 -3 16
-17 16 -29 0 -18 -7 -25 -30 -30 -39 -8 -50 0 -50 36 0 24 4 29 24 29 13 0 31
-3 40 -6z m10 -97 c10 -7 17 -22 15 -33 -3 -15 -14 -20 -47 -22 l-42 -3 0 35
c0 33 3 36 28 36 16 0 36 -6 46 -13z"/>
<path d="M1140 395 l0 -105 65 0 c51 0 65 3 65 15 0 11 -12 15 -51 15 l-50 0
3 33 c3 30 6 32 46 35 56 4 54 22 -3 22 -45 0 -45 0 -45 35 l0 35 50 0 c28 0
50 5 50 10 0 6 -28 10 -65 10 l-65 0 0 -105z"/>
<path d="M1470 488 c0 -7 -7 -26 -15 -42 -13 -24 -45 -132 -45 -150 0 -15 16
-4 25 17 8 17 19 23 57 25 44 3 48 1 54 -22 3 -15 13 -26 21 -26 17 0 17 -4
-22 118 -26 81 -32 92 -52 92 -13 0 -23 -6 -23 -12z m54 -95 c7 -21 4 -23 -28
-23 -20 0 -36 2 -36 5 0 2 7 23 17 46 16 41 16 41 28 18 7 -13 16 -34 19 -46z"/>
<path d="M2010 416 c0 -79 2 -86 26 -105 33 -26 81 -27 114 -1 23 17 25 27 29
104 3 81 2 86 -18 86 -19 0 -20 -7 -23 -87 l-3 -88 -35 -3 c-48 -5 -60 16 -60
105 0 58 -3 73 -15 73 -12 0 -15 -16 -15 -84z"/>
<path d="M2230 395 c0 -87 3 -105 15 -105 11 0 15 11 15 39 0 66 35 66 66 1
11 -22 25 -40 32 -40 16 0 15 12 -3 36 -19 25 -19 58 0 74 20 16 19 64 -1 84
-10 11 -34 16 -70 16 l-54 0 0 -105z m98 76 c8 -5 12 -21 10 -37 -3 -26 -7
-29 -40 -32 l-38 -3 0 40 c0 38 2 41 28 41 15 0 33 -4 40 -9z"/>
<path d="M2430 395 l0 -105 65 0 c51 0 65 3 65 15 0 12 -13 15 -56 15 l-55 0
3 33 c3 31 4 32 56 35 28 2 52 7 52 12 0 5 -24 10 -52 12 -51 3 -53 4 -53 33
0 29 2 30 53 33 75 4 65 22 -13 22 l-65 0 0 -105z"/>
<path d="M2612 398 l3 -103 57 0 c82 1 112 25 116 94 3 46 0 55 -27 81 -26 27
-36 30 -91 30 l-61 0 3 -102z m131 51 c21 -26 22 -77 1 -107 -11 -16 -25 -22
-55 -22 l-39 0 0 81 0 82 38 -6 c20 -4 45 -16 55 -28z"/>
<path d="M2954 403 c-21 -54 -40 -101 -42 -105 -9 -20 28 -5 42 17 13 20 25
25 56 25 33 0 42 -4 52 -25 10 -23 38 -36 38 -18 0 4 -17 52 -37 105 -26 66
-43 98 -54 98 -11 0 -28 -32 -55 -97z m85 -25 c1 -5 -12 -8 -29 -8 -34 0 -37
8 -13 53 l16 32 13 -35 c7 -19 13 -38 13 -42z"/>
<path d="M3140 401 c0 -60 4 -102 11 -106 16 -11 18 -4 20 68 1 37 6 70 10 73
5 3 22 -17 38 -43 85 -138 101 -138 101 2 0 87 -3 105 -15 105 -12 0 -15 -14
-15 -69 0 -77 -10 -94 -31 -53 -31 60 -82 122 -100 122 -17 0 -19 -8 -19 -99z"/>
<path d="M3370 395 l0 -105 46 0 c53 0 110 24 125 53 6 11 9 40 6 66 -7 66
-40 91 -118 91 l-59 0 0 -105z m104 74 c44 -21 58 -96 24 -136 -6 -7 -30 -13
-54 -13 l-44 0 0 73 c0 41 3 77 7 80 10 10 39 8 67 -4z"/>
<path d="M3690 395 c0 -63 4 -105 10 -105 6 0 10 42 10 105 0 63 -4 105 -10
105 -6 0 -10 -42 -10 -105z"/>
<path d="M3772 398 c2 -84 6 -103 18 -103 11 0 16 17 20 70 l5 70 34 -50 c40
-59 71 -95 83 -95 4 0 8 47 8 105 0 63 -4 105 -10 105 -6 0 -10 -32 -10 -75 0
-41 -3 -75 -7 -75 -5 0 -30 34 -57 75 -32 48 -56 75 -68 75 -17 0 -18 -9 -16
-102z"/>
<path d="M4190 416 c0 -79 2 -86 26 -105 32 -25 81 -27 111 -3 19 15 22 28 25
105 3 77 1 87 -14 87 -15 0 -18 -13 -20 -87 l-3 -88 -39 -3 c-24 -2 -42 2 -47
10 -5 7 -9 48 -9 91 0 62 -3 77 -15 77 -12 0 -15 -16 -15 -84z"/>
<path d="M4404 398 c1 -84 4 -103 16 -103 10 0 17 13 20 40 5 37 10 42 38 37
5 -1 16 -20 25 -42 9 -23 22 -40 31 -40 20 0 20 2 -5 45 l-22 36 22 23 c11 12
21 34 21 48 0 40 -29 58 -92 58 l-56 0 2 -102z m110 60 c16 -26 -4 -52 -43
-56 -30 -3 -31 -2 -31 38 0 40 1 41 31 38 18 -2 37 -11 43 -20z"/>
<path d="M4610 395 l0 -106 63 3 c76 4 82 22 9 26 l-53 3 3 32 c3 31 5 32 51
35 26 2 47 7 47 12 0 5 -21 10 -47 12 -46 3 -48 4 -51 36 l-3 32 55 0 c31 0
56 5 56 10 0 6 -28 10 -65 10 l-65 0 0 -105z"/>
<path d="M4790 395 l0 -105 44 0 c55 0 104 17 116 40 6 10 10 42 10 70 0 74
-28 100 -110 100 l-60 0 0 -105z m99 74 c17 -6 36 -19 41 -29 15 -28 12 -73
-6 -98 -13 -19 -24 -22 -57 -20 l-42 3 -3 64 c-5 95 2 103 67 80z"/>
</g>
</svg>
